<?xml version="1.0" encoding="utf-8"?>
<!-- Generator: Adobe Illustrator 15.1.0, SVG Export Plug-In . SVG Version: 6.00 Build 0)  -->
<!DOCTYPE svg PUBLIC "-//W3C//DTD SVG 1.1//EN" "http://www.w3.org/Graphics/SVG/1.1/DTD/svg11.dtd">
<svg version="1.1" id="Layer_1" xmlns="http://www.w3.org/2000/svg" xmlns:xlink="http://www.w3.org/1999/xlink" x="0px" y="0px"
	 width="100px" height="100px" viewBox="0 0 100 100" enable-background="new 0 0 100 100" xml:space="preserve">
<path d="M99.616,85.288L52.939,3.804c-0.582-1.019-1.666-1.647-2.84-1.648c-0.001,0-0.002,0-0.003,0
	c-1.173,0-2.256,0.627-2.841,1.644L0.387,85.283c-0.583,1.014-0.582,2.262,0.004,3.273c0.586,1.014,1.667,1.637,2.837,1.637h93.545
	c1.168,0,2.248-0.623,2.834-1.633C100.193,87.549,100.197,86.303,99.616,85.288z M91.118,83.641H38.87l26.178-45.513L91.118,83.641z
	 M61.594,32.098L31.948,83.641h-8.226L57.49,24.934L61.594,32.098z M50.091,12.016l3.945,6.888L16.801,83.641H8.893L50.091,12.016z"
	/>
</svg>
