<?xml version="1.0" encoding="utf-8"?>
<!-- Generator: Adobe Illustrator 15.1.0, SVG Export Plug-In . SVG Version: 6.00 Build 0)  -->
<!DOCTYPE svg PUBLIC "-//W3C//DTD SVG 1.1//EN" "http://www.w3.org/Graphics/SVG/1.1/DTD/svg11.dtd">
<svg version="1.1" id="Layer_1" xmlns="http://www.w3.org/2000/svg" xmlns:xlink="http://www.w3.org/1999/xlink" x="0px" y="0px"
	 width="100px" height="100px" viewBox="0 0 100 100" enable-background="new 0 0 100 100" xml:space="preserve">
<path d="M96.771,90.193H3.228c-1.17,0-2.251-0.623-2.837-1.637c-0.585-1.013-0.587-2.261-0.004-3.273L47.256,3.799
	c0.585-1.017,1.668-1.644,2.841-1.644c0.001,0,0.002,0,0.003,0c1.173,0.001,2.257,0.63,2.841,1.647l46.676,81.484
	c0.581,1.015,0.578,2.261-0.01,3.271C99.021,89.57,97.941,90.193,96.771,90.193z M8.893,83.641h82.225L50.091,12.016L8.893,83.641z"
	/>
<path d="M47.438,61.427l5.044,1.601c-0.772,2.813-2.06,4.9-3.856,6.267c-1.8,1.365-4.082,2.048-6.847,2.048
	c-3.422,0-6.234-1.169-8.438-3.507c-2.204-2.338-3.305-5.534-3.305-9.589c0-4.289,1.107-7.62,3.322-9.993
	c2.215-2.373,5.127-3.56,8.736-3.56c3.152,0,5.712,0.932,7.681,2.795c1.172,1.102,2.051,2.684,2.637,4.747l-5.15,1.229
	c-0.305-1.336-0.939-2.391-1.907-3.164c-0.967-0.773-2.142-1.16-3.524-1.16c-1.91,0-3.46,0.686-4.649,2.057
	s-1.784,3.592-1.784,6.662c0,3.258,0.586,5.578,1.758,6.961c1.172,1.383,2.695,2.074,4.57,2.074c1.383,0,2.572-0.439,3.568-1.318
	C46.29,64.695,47.005,63.313,47.438,61.427z"/>
<path d="M57.089,70.9V45.343h5.203v21.218H75.23v4.342H57.089V70.9z"/>
</svg>
