<?xml version="1.0" encoding="utf-8"?>
<!-- Generator: Adobe Illustrator 15.1.0, SVG Export Plug-In . SVG Version: 6.00 Build 0)  -->
<!DOCTYPE svg PUBLIC "-//W3C//DTD SVG 1.1//EN" "http://www.w3.org/Graphics/SVG/1.1/DTD/svg11.dtd">
<svg version="1.1" id="Layer_1" xmlns="http://www.w3.org/2000/svg" xmlns:xlink="http://www.w3.org/1999/xlink" x="0px" y="0px"
	 width="100px" height="100px" viewBox="0 0 100 100" enable-background="new 0 0 100 100" xml:space="preserve">
<path d="M49.999,90.723c-24.965,0-45.275-20.313-45.275-45.279c0-24.965,20.311-45.276,45.275-45.276
	c24.966,0,45.276,20.311,45.276,45.276C95.275,70.409,74.965,90.723,49.999,90.723z M49.999,6.868
	c-21.271,0-38.574,17.305-38.574,38.575c0,21.271,17.304,38.577,38.574,38.577c21.271,0,38.575-17.306,38.575-38.577
	C88.574,24.173,71.27,6.868,49.999,6.868z"/>
<path d="M37.727,66.26V25.119h13.33c5.051,0,8.344,0.206,9.877,0.618c2.358,0.617,4.332,1.96,5.922,4.027s2.387,4.738,2.387,8.012
	c0,2.525-0.459,4.649-1.375,6.37c-0.917,1.721-2.082,3.073-3.494,4.055c-1.413,0.982-2.85,1.633-4.309,1.951
	c-1.982,0.393-4.854,0.589-8.614,0.589h-5.416V66.26H37.727z M46.033,32.079v11.675h4.546c3.272,0,5.463-0.215,6.565-0.646
	c1.104-0.431,1.97-1.104,2.597-2.021c0.627-0.916,0.94-1.982,0.94-3.199c0-1.496-0.44-2.731-1.32-3.704
	c-0.879-0.972-1.991-1.581-3.338-1.824c-0.992-0.187-2.984-0.281-5.979-0.281H46.033z"/>
<path d="M91.409,100.002H8.591c-1.851,0-3.351-1.5-3.351-3.352c0-1.851,1.5-3.351,3.351-3.351h82.818
	c1.851,0,3.351,1.501,3.351,3.353C94.76,98.503,93.26,100.002,91.409,100.002z"/>
</svg>
