<?xml version="1.0" encoding="utf-8"?>
<!-- Generator: Adobe Illustrator 15.1.0, SVG Export Plug-In . SVG Version: 6.00 Build 0)  -->
<!DOCTYPE svg PUBLIC "-//W3C//DTD SVG 1.1//EN" "http://www.w3.org/Graphics/SVG/1.1/DTD/svg11.dtd">
<svg version="1.1" id="Layer_1" xmlns="http://www.w3.org/2000/svg" xmlns:xlink="http://www.w3.org/1999/xlink" x="0px" y="0px"
	 width="100px" height="100px" viewBox="0 0 100 100" enable-background="new 0 0 100 100" xml:space="preserve">
<path d="M49.999,99.889C22.507,99.889,0.14,77.52,0.14,50.027s22.367-49.86,49.858-49.86c27.494,0,49.861,22.367,49.861,49.86
	S77.492,99.889,49.999,99.889z M49.999,7.546c-23.423,0-42.479,19.057-42.479,42.48c0,23.424,19.056,42.481,42.479,42.481
	S92.479,73.45,92.479,50.026C92.479,26.603,73.422,7.546,49.999,7.546z"/>
<path d="M36.545,72.95V27.645h31.059v7.664H45.693v10.724h18.913v7.664H45.694V72.95H36.545z"/>
</svg>
