<?xml version="1.0" encoding="utf-8"?>
<!-- Generator: Adobe Illustrator 15.1.0, SVG Export Plug-In . SVG Version: 6.00 Build 0)  -->
<!DOCTYPE svg PUBLIC "-//W3C//DTD SVG 1.1//EN" "http://www.w3.org/Graphics/SVG/1.1/DTD/svg11.dtd">
<svg version="1.1" id="Layer_1" xmlns="http://www.w3.org/2000/svg" xmlns:xlink="http://www.w3.org/1999/xlink" x="0px" y="0px"
	 width="100px" height="100px" viewBox="0 0 100 100" enable-background="new 0 0 100 100" xml:space="preserve">
<path d="M49.999,99.889C22.507,99.889,0.14,77.52,0.14,50.027s22.367-49.86,49.858-49.86c27.494,0,49.861,22.367,49.861,49.86
	S77.492,99.889,49.999,99.889z M49.999,7.546c-23.423,0-42.479,19.057-42.479,42.48c0,23.424,19.056,42.481,42.479,42.481
	S92.479,73.45,92.479,50.026C92.479,26.603,73.422,7.546,49.999,7.546z"/>
<path d="M36.484,72.95V27.645h14.68c5.561,0,9.188,0.227,10.877,0.68c2.596,0.68,4.77,2.158,6.521,4.435
	c1.75,2.277,2.627,5.218,2.627,8.823c0,2.781-0.506,5.12-1.517,7.015c-1.01,1.895-2.291,3.382-3.848,4.464
	c-1.556,1.082-3.138,1.799-4.742,2.148c-2.187,0.434-5.349,0.648-9.487,0.648h-5.965V72.95H36.484z M45.631,35.309v12.856h5.006
	c3.605,0,6.018-0.237,7.232-0.71c1.215-0.475,2.168-1.215,2.857-2.226c0.69-1.009,1.037-2.183,1.037-3.523
	c0-1.647-0.486-3.007-1.453-4.079c-0.97-1.07-2.195-1.741-3.679-2.009c-1.092-0.205-3.286-0.309-6.583-0.309H45.631z"/>
</svg>
