<?xml version="1.0" encoding="utf-8"?>
<!-- Generator: Adobe Illustrator 15.1.0, SVG Export Plug-In . SVG Version: 6.00 Build 0)  -->
<!DOCTYPE svg PUBLIC "-//W3C//DTD SVG 1.1//EN" "http://www.w3.org/Graphics/SVG/1.1/DTD/svg11.dtd">
<svg version="1.1" id="Layer_1" xmlns="http://www.w3.org/2000/svg" xmlns:xlink="http://www.w3.org/1999/xlink" x="0px" y="0px"
	 width="100px" height="100px" viewBox="0 0 100 100" enable-background="new 0 0 100 100" xml:space="preserve">
<path d="M50.073,82.555c-22.713,0-41.192-18.479-41.192-41.195c0-22.714,18.479-41.193,41.192-41.193
	c22.714,0,41.194,18.479,41.194,41.193C91.268,64.074,72.787,82.555,50.073,82.555z M50.073,6.264
	c-19.352,0-35.096,15.744-35.096,35.096c0,19.353,15.744,35.097,35.096,35.097c19.352,0,35.096-15.744,35.096-35.097
	C85.169,22.008,69.425,6.264,50.073,6.264z"/>
<path d="M38.958,60.299v-37.43h25.659v6.332H46.516v8.86h15.625v6.332H46.516v15.906H38.958z"/>
<path d="M87.748,100.007H12.399c-1.684,0-3.048-1.364-3.048-3.049s1.365-3.049,3.048-3.049h75.349c1.684,0,3.049,1.364,3.049,3.049
	S89.432,100.007,87.748,100.007z"/>
<path d="M87.748,90.998H12.399c-1.684,0-3.048-1.365-3.048-3.049s1.365-3.049,3.048-3.049h75.349c1.684,0,3.049,1.365,3.049,3.049
	S89.432,90.998,87.748,90.998z"/>
</svg>
