<?xml version="1.0" encoding="utf-8"?>
<!-- Generator: Adobe Illustrator 15.1.0, SVG Export Plug-In . SVG Version: 6.00 Build 0)  -->
<!DOCTYPE svg PUBLIC "-//W3C//DTD SVG 1.1//EN" "http://www.w3.org/Graphics/SVG/1.1/DTD/svg11.dtd">
<svg version="1.1" id="Layer_1" xmlns="http://www.w3.org/2000/svg" xmlns:xlink="http://www.w3.org/1999/xlink" x="0px" y="0px"
	 width="100px" height="100px" viewBox="0 0 100 100" enable-background="new 0 0 100 100" xml:space="preserve">
<path d="M50.073,82.555c-22.713,0-41.192-18.479-41.192-41.195c0-22.714,18.479-41.193,41.192-41.193
	c22.714,0,41.194,18.479,41.194,41.193C91.268,64.074,72.787,82.555,50.073,82.555z M50.073,6.264
	c-19.352,0-35.096,15.744-35.096,35.096c0,19.353,15.744,35.097,35.096,35.097c19.352,0,35.096-15.744,35.096-35.097
	C85.169,22.008,69.425,6.264,50.073,6.264z"/>
<path d="M38.907,60.299v-37.43h12.128c4.595,0,7.591,0.188,8.986,0.562c2.146,0.562,3.939,1.783,5.388,3.664
	c1.446,1.881,2.17,4.312,2.17,7.29c0,2.298-0.417,4.23-1.251,5.796s-1.895,2.795-3.18,3.689s-2.592,1.485-3.918,1.774
	c-1.806,0.357-4.418,0.536-7.838,0.536h-4.929v14.119H38.907z M46.464,29.201v10.622H50.6c2.979,0,4.971-0.196,5.976-0.587
	c1.004-0.392,1.791-1.004,2.36-1.838c0.57-0.833,0.855-1.804,0.855-2.911c0-1.361-0.4-2.485-1.2-3.37
	c-0.8-0.885-1.813-1.438-3.038-1.66c-0.902-0.17-2.715-0.255-5.438-0.255L46.464,29.201L46.464,29.201z"/>
<path d="M87.748,100.007H12.399c-1.684,0-3.048-1.364-3.048-3.049s1.365-3.049,3.048-3.049h75.349c1.684,0,3.049,1.364,3.049,3.049
	S89.432,100.007,87.748,100.007z"/>
<path d="M87.748,90.998H12.399c-1.684,0-3.048-1.365-3.048-3.049s1.365-3.049,3.048-3.049h75.349c1.684,0,3.049,1.365,3.049,3.049
	S89.432,90.998,87.748,90.998z"/>
</svg>
