<?xml version="1.0" encoding="utf-8"?>
<!-- Generator: Adobe Illustrator 15.1.0, SVG Export Plug-In . SVG Version: 6.00 Build 0)  -->
<!DOCTYPE svg PUBLIC "-//W3C//DTD SVG 1.1//EN" "http://www.w3.org/Graphics/SVG/1.1/DTD/svg11.dtd">
<svg version="1.1" id="Layer_1" xmlns="http://www.w3.org/2000/svg" xmlns:xlink="http://www.w3.org/1999/xlink" x="0px" y="0px"
	 width="100px" height="100px" viewBox="0 0 100 100" enable-background="new 0 0 100 100" xml:space="preserve">
<path d="M77.71,53.35H22.292c-1.864,0-3.375-1.512-3.375-3.375c0-1.864,1.511-3.375,3.375-3.375H77.71
	c1.863,0,3.375,1.511,3.375,3.375C81.085,51.838,79.573,53.35,77.71,53.35z"/>
<path d="M96.568,99.958H3.432c-1.864,0-3.375-1.513-3.375-3.375V3.447c0-1.864,1.511-3.375,3.375-3.375h93.136
	c1.863,0,3.375,1.511,3.375,3.375v93.136C99.943,98.445,98.432,99.958,96.568,99.958z M6.806,93.208h86.387V6.821H6.806V93.208z"/>
</svg>
