<?xml version="1.0" encoding="utf-8"?>
<!-- Generator: Adobe Illustrator 15.1.0, SVG Export Plug-In . SVG Version: 6.00 Build 0)  -->
<!DOCTYPE svg PUBLIC "-//W3C//DTD SVG 1.1//EN" "http://www.w3.org/Graphics/SVG/1.1/DTD/svg11.dtd">
<svg version="1.1" id="Layer_1" xmlns="http://www.w3.org/2000/svg" xmlns:xlink="http://www.w3.org/1999/xlink" x="0px" y="0px"
	 width="100px" height="100px" viewBox="0 0 100 100" enable-background="new 0 0 100 100" xml:space="preserve">
<path d="M96.568,0.072h-0.303c-0.115-0.008-0.229-0.004-0.344,0H4.083c-0.118-0.004-0.234-0.008-0.352,0h-0.3
	c-1.864,0-3.375,1.511-3.375,3.375v93.136c0,1.862,1.511,3.375,3.375,3.375h93.137c1.863,0,3.375-1.513,3.375-3.375V3.447
	C99.943,1.583,98.432,0.072,96.568,0.072z M88.586,6.821C81.777,13.743,68.016,24.893,50,24.893
	c-17.948,0-31.734-11.149-38.566-18.072H88.586z M6.806,93.208V11.805C14.475,19.581,29.649,31.642,50,31.642
	c20.352,0,35.523-12.06,43.193-19.835v81.401H6.806z"/>
</svg>
