<?xml version="1.0" encoding="utf-8"?>
<!-- Generator: Adobe Illustrator 15.1.0, SVG Export Plug-In . SVG Version: 6.00 Build 0)  -->
<!DOCTYPE svg PUBLIC "-//W3C//DTD SVG 1.1//EN" "http://www.w3.org/Graphics/SVG/1.1/DTD/svg11.dtd">
<svg version="1.1" id="Layer_1" xmlns="http://www.w3.org/2000/svg" xmlns:xlink="http://www.w3.org/1999/xlink" x="0px" y="0px"
	 width="100px" height="100px" viewBox="0 0 100 100" enable-background="new 0 0 100 100" xml:space="preserve">
<path d="M72.352,81.059c1.863,0,3.375-1.512,3.375-3.375V21.8c0-1.864-1.512-3.375-3.375-3.375s-3.375,1.511-3.375,3.375v55.884
	C68.977,79.547,70.488,81.059,72.352,81.059z"/>
<path d="M96.568,0.072H35.691c-0.111-0.006-0.221-0.005-0.332,0H3.432c-1.864,0-3.375,1.511-3.375,3.375v93.136
	c0,1.862,1.511,3.375,3.375,3.375h93.136c1.863,0,3.375-1.513,3.375-3.375V3.447C99.943,1.583,98.432,0.072,96.568,0.072z
	 M31.023,27.809V21.8c0-1.864-1.511-3.375-3.375-3.375c-1.864,0-3.375,1.511-3.375,3.375v12.674L6.806,51.727V36.529L36.885,6.821
	h15.391L31.023,27.809z M27.281,6.821L6.806,27.044V6.821H27.281z M93.193,93.208H6.806V61.197c0.027-0.025,0.058-0.042,0.084-0.068
	L24.274,43.96v33.724c0,1.863,1.511,3.375,3.375,3.375c1.864,0,3.375-1.512,3.375-3.375v-40.39l15.604-15.411v55.801
	c0,1.862,1.511,3.375,3.375,3.375c1.863,0,3.375-1.513,3.375-3.375V21.8c0-1.825-1.451-3.301-3.26-3.363l11.76-11.616h31.315V93.208
	z"/>
</svg>
