<?xml version="1.0" encoding="utf-8"?>
<!-- Generator: Adobe Illustrator 15.1.0, SVG Export Plug-In . SVG Version: 6.00 Build 0)  -->
<!DOCTYPE svg PUBLIC "-//W3C//DTD SVG 1.1//EN" "http://www.w3.org/Graphics/SVG/1.1/DTD/svg11.dtd">
<svg version="1.1" id="Layer_1" xmlns="http://www.w3.org/2000/svg" xmlns:xlink="http://www.w3.org/1999/xlink" x="0px" y="0px"
	 width="100px" height="100px" viewBox="0 0 100 100" enable-background="new 0 0 100 100" xml:space="preserve">
<path d="M96.568,0.072h-0.303c-0.115-0.008-0.229-0.004-0.344,0H35.691c-0.111-0.006-0.221-0.005-0.332,0H4.083
	c-0.118-0.004-0.234-0.008-0.352,0h-0.3c-1.864,0-3.375,1.511-3.375,3.375v93.136c0,1.862,1.511,3.375,3.375,3.375h93.137
	c1.863,0,3.375-1.513,3.375-3.375V3.447C99.943,1.583,98.432,0.072,96.568,0.072z M6.806,36.529l13.821-13.651
	c3.083,1.904,6.495,3.671,10.214,5.111L6.806,51.727V36.529z M25.637,17.93L36.885,6.821h15.391L36.212,22.685
	C32.367,21.449,28.828,19.787,25.637,17.93z M61.878,6.821h26.708C81.777,13.743,68.016,24.893,50,24.893
	c-2.055,0-4.052-0.152-5.993-0.421L61.878,6.821z M27.281,6.821l-7.409,7.317c-3.444-2.538-6.287-5.137-8.438-7.317H27.281z
	 M14.964,18.986l-8.158,8.058V11.805C8.954,13.982,11.69,16.496,14.964,18.986z M93.193,93.208H6.806V61.197
	c0.027-0.025,0.058-0.042,0.084-0.068l31.262-30.875c3.719,0.874,7.672,1.388,11.848,1.388c20.352,0,35.523-12.06,43.193-19.835
	V93.208z"/>
</svg>
