<?xml version="1.0" encoding="utf-8"?>
<!-- Generator: Adobe Illustrator 15.1.0, SVG Export Plug-In . SVG Version: 6.00 Build 0)  -->
<!DOCTYPE svg PUBLIC "-//W3C//DTD SVG 1.1//EN" "http://www.w3.org/Graphics/SVG/1.1/DTD/svg11.dtd">
<svg version="1.1" id="Layer_1" xmlns="http://www.w3.org/2000/svg" xmlns:xlink="http://www.w3.org/1999/xlink" x="0px" y="0px"
	 width="100px" height="100px" viewBox="0 0 100 100" enable-background="new 0 0 100 100" xml:space="preserve">
<path d="M27.649,81.059c-1.864,0-3.375-1.512-3.375-3.375V21.8c0-1.864,1.511-3.375,3.375-3.375c1.864,0,3.375,1.511,3.375,3.375
	v55.884C31.023,79.547,29.513,81.059,27.649,81.059z"/>
<path d="M50.002,81.059c-1.864,0-3.375-1.512-3.375-3.375V21.8c0-1.864,1.511-3.375,3.375-3.375c1.863,0,3.375,1.511,3.375,3.375
	v55.884C53.377,79.547,51.865,81.059,50.002,81.059z"/>
<path d="M72.352,81.059c-1.863,0-3.375-1.512-3.375-3.375V21.8c0-1.864,1.512-3.375,3.375-3.375s3.375,1.511,3.375,3.375v55.884
	C75.727,79.547,74.215,81.059,72.352,81.059z"/>
<path d="M96.568,99.958H3.432c-1.864,0-3.375-1.513-3.375-3.375V3.447c0-1.864,1.511-3.375,3.375-3.375h93.136
	c1.863,0,3.375,1.511,3.375,3.375v93.136C99.943,98.445,98.432,99.958,96.568,99.958z M6.806,93.208h86.387V6.821H6.806V93.208z"/>
</svg>
