<?xml version="1.0" encoding="utf-8"?>
<!-- Generator: Adobe Illustrator 15.1.0, SVG Export Plug-In . SVG Version: 6.00 Build 0)  -->
<!DOCTYPE svg PUBLIC "-//W3C//DTD SVG 1.1//EN" "http://www.w3.org/Graphics/SVG/1.1/DTD/svg11.dtd">
<svg version="1.1" id="Layer_1" xmlns="http://www.w3.org/2000/svg" xmlns:xlink="http://www.w3.org/1999/xlink" x="0px" y="0px"
	 width="100px" height="100px" viewBox="0 0 100 100" enable-background="new 0 0 100 100" xml:space="preserve">
<path d="M96.568,0.072H35.691c-0.111-0.006-0.221-0.005-0.332,0H3.432c-1.864,0-3.375,1.511-3.375,3.375v93.136
	c0,1.862,1.511,3.375,3.375,3.375h93.136c1.863,0,3.375-1.513,3.375-3.375V3.447C99.943,1.583,98.432,0.072,96.568,0.072z
	 M6.806,36.529L36.885,6.821h15.391L6.806,51.727V36.529z M27.281,6.821L6.806,27.044V6.821H27.281z M93.193,93.208H6.806V61.197
	c0.027-0.025,0.058-0.042,0.084-0.068l12.146-11.995c-0.07,0.271-0.119,0.549-0.119,0.841c0,1.863,1.511,3.375,3.375,3.375H77.71
	c1.863,0,3.375-1.512,3.375-3.375c0-1.864-1.512-3.375-3.375-3.375H22.292c-0.276,0-0.54,0.042-0.797,0.105L61.878,6.821h31.315
	V93.208z"/>
</svg>
