<?xml version="1.0" encoding="utf-8"?>
<!-- Generator: Adobe Illustrator 15.1.0, SVG Export Plug-In . SVG Version: 6.00 Build 0)  -->
<!DOCTYPE svg PUBLIC "-//W3C//DTD SVG 1.1//EN" "http://www.w3.org/Graphics/SVG/1.1/DTD/svg11.dtd">
<svg version="1.1" id="Layer_1" xmlns="http://www.w3.org/2000/svg" xmlns:xlink="http://www.w3.org/1999/xlink" x="0px" y="0px"
	 width="100px" height="100px" viewBox="0 0 100 100" enable-background="new 0 0 100 100" xml:space="preserve">
<path d="M99.947,71.814L87.898,13.328c-0.307-1.484-1.611-2.55-3.127-2.552L26.726,10.68c-0.002,0-0.003,0-0.005,0
	c-1.763,0-3.194,1.428-3.197,3.192c-0.003,1.766,1.426,3.2,3.192,3.203l55.445,0.091l4.463,21.663
	c-7.714,0.014-26.335,0.042-48.098,0.042c-25.048,0-37.78,31.221-38.31,32.55c-0.393,0.985-0.271,2.103,0.325,2.979
	c0.595,0.877,1.586,1.4,2.645,1.4c0.001,0,0.003,0,0.005,0l25.907-0.04c-0.144,0.193-0.27,0.401-0.355,0.64
	c-0.465,1.301,0.212,2.73,1.512,3.195l10.069,3.602l-2.703,4.486l-7.368,2.641c-1.3,0.466-1.976,1.896-1.51,3.195
	c0.366,1.021,1.328,1.658,2.354,1.658c0.28,0,0.564-0.048,0.843-0.146l1.846-0.661c-0.187,0.996,0.24,2.047,1.16,2.603
	c0.404,0.242,0.849,0.357,1.288,0.357c0.848,0,1.675-0.432,2.144-1.21l2.608-4.33l11.672-4.183l12.027,4.302l2.535,4.211
	c0.471,0.778,1.297,1.21,2.145,1.21c0.439,0,0.885-0.115,1.287-0.357c0.891-0.537,1.324-1.539,1.185-2.506l1.823,0.652
	c0.277,0.1,0.563,0.146,0.842,0.146c1.025,0,1.988-0.638,2.354-1.658c0.467-1.301-0.211-2.73-1.512-3.195l-7.295-2.607l-2.828-4.697
	l10.043-3.598c1.299-0.466,1.977-1.896,1.51-3.195c-0.082-0.231-0.205-0.437-0.344-0.625l20.394-0.031
	c0.96-0.002,1.868-0.436,2.475-1.18C99.9,73.732,100.141,72.755,99.947,71.814z M34.354,75.754l10.464-0.018l-1.863,3.094
	L34.354,75.754z M54.934,75.723l2.854,4.737l-5.133,1.839l-4.896-1.752l2.903-4.818L54.934,75.723z M62.588,78.739l-1.822-3.026
	l10.313-0.016L62.588,78.739z M8.242,69.398c4.191-8,14.59-24.133,30.283-24.133c23.116,0,42.686-0.032,49.415-0.044l4.955,24.046
	L8.242,69.398z"/>
</svg>
