<?xml version="1.0" encoding="utf-8"?>
<!-- Generator: Adobe Illustrator 15.1.0, SVG Export Plug-In . SVG Version: 6.00 Build 0)  -->
<!DOCTYPE svg PUBLIC "-//W3C//DTD SVG 1.1//EN" "http://www.w3.org/Graphics/SVG/1.1/DTD/svg11.dtd">
<svg version="1.1" id="Layer_1" xmlns="http://www.w3.org/2000/svg" xmlns:xlink="http://www.w3.org/1999/xlink" x="0px" y="0px"
	 width="100px" height="100px" viewBox="0 0 100 100" enable-background="new 0 0 100 100" xml:space="preserve">
<path d="M3.185,75.802c-1.059,0-2.05-0.524-2.645-1.401c-0.596-0.877-0.718-1.993-0.325-2.979c0.529-1.329,13.262-32.55,38.31-32.55
	c21.763,0,40.384-0.028,48.098-0.042L82.16,17.166l-55.445-0.091c-1.766-0.003-3.195-1.437-3.192-3.203
	c0.003-1.764,1.434-3.192,3.197-3.192c0.002,0,0.003,0,0.005,0l58.046,0.096c1.516,0.002,2.82,1.068,3.127,2.552l12.049,58.486
	c0.193,0.939-0.047,1.918-0.652,2.662c-0.605,0.746-1.516,1.179-2.475,1.181L3.19,75.802C3.188,75.802,3.187,75.802,3.185,75.802z
	 M87.939,45.221c-6.729,0.012-26.299,0.044-49.416,0.044c-15.692,0-26.091,16.133-30.283,24.133l84.651-0.131L87.939,45.221z"/>
<circle cx="56.352" cy="56.587" r="4.576"/>
</svg>
