<?xml version="1.0" encoding="utf-8"?>
<!-- Generator: Adobe Illustrator 15.1.0, SVG Export Plug-In . SVG Version: 6.00 Build 0)  -->
<!DOCTYPE svg PUBLIC "-//W3C//DTD SVG 1.1//EN" "http://www.w3.org/Graphics/SVG/1.1/DTD/svg11.dtd">
<svg version="1.1" id="Layer_1" xmlns="http://www.w3.org/2000/svg" xmlns:xlink="http://www.w3.org/1999/xlink" x="0px" y="0px"
	 width="100px" height="100px" viewBox="0 0 100 100" enable-background="new 0 0 100 100" xml:space="preserve">
<path d="M99.122,32.197c-0.563-0.563-1.326-0.88-2.122-0.88h-6.161c-3.293,0-7.157,2.065-8.987,4.804l-4.119,6.163l-6.484-6.533
	L91.35,18.789c1.268-1.068,1.428-2.961,0.358-4.228c-1.069-1.266-2.962-1.428-4.228-0.358L66.041,32.292
	c-1.55-0.604-3.176-0.973-4.614-0.973H38.473c-1.549,0-3.223,0.462-4.754,1.231L12.372,14.572c-1.268-1.068-3.16-0.906-4.227,0.362
	c-1.067,1.267-0.905,3.16,0.362,4.227l15.336,12.917c-1.378-0.473-2.789-0.757-4.05-0.757H3.032c-1.656,0-2.999,1.341-3,2.997
	L0,65.682c-0.001,0.795,0.315,1.56,0.877,2.123C1.44,68.367,2.203,68.684,3,68.684h6.162c3.293,0,7.156-2.063,8.987-4.801
	l4.091-6.119l6.239,6.223L8.504,80.84c-1.267,1.068-1.427,2.961-0.358,4.229c0.594,0.703,1.441,1.064,2.294,1.064
	c0.683,0,1.37-0.232,1.933-0.707l21.18-17.871c1.668,0.702,3.456,1.127,5.018,1.127h22.953c1.455,0,3.017-0.416,4.471-1.103
	l21.633,18.22c0.563,0.475,1.249,0.705,1.932,0.705c0.854,0,1.703-0.363,2.297-1.066c1.066-1.269,0.904-3.16-0.362-4.229
	L75.387,67.645C77,68.29,78.71,68.682,80.21,68.682h16.757c1.655,0,2.998-1.341,3-2.996L100,34.321
	C100.001,33.524,99.686,32.76,99.122,32.197z M60.083,37.32l-10.341,8.726L39.381,37.32H60.083z M13.162,60.548
	c-0.721,1.078-2.702,2.136-4,2.136H6.003L6.029,37.32h13.763c1.511,0,3.958,1.005,5,2.032l1.508,1.539L13.162,60.548z
	 M25.673,52.712l6.986-10.506c0.059-0.089,0.113-0.18,0.162-0.273l0.981-1.467l11.287,9.506L33.082,60.104L25.673,52.712z
	 M39.329,62.682l10.416-8.787l10.435,8.787H39.329z M54.398,49.967l12.248-10.334l7.674,7.732l-8.279,12.408L54.398,49.967z
	 M93.971,62.682H80.21c-1.513,0-3.959-1.004-5.021-2.053l-1.479-1.479l13.127-19.695c0.723-1.079,2.703-2.138,4-2.138h3.158
	L93.971,62.682z"/>
</svg>
