<?xml version="1.0" encoding="utf-8"?>
<!-- Generator: Adobe Illustrator 15.1.0, SVG Export Plug-In . SVG Version: 6.00 Build 0)  -->
<!DOCTYPE svg PUBLIC "-//W3C//DTD SVG 1.1//EN" "http://www.w3.org/Graphics/SVG/1.1/DTD/svg11.dtd">
<svg version="1.1" id="Layer_1" xmlns="http://www.w3.org/2000/svg" xmlns:xlink="http://www.w3.org/1999/xlink" x="0px" y="0px"
	 width="100px" height="100px" viewBox="0 0 100 100" enable-background="new 0 0 100 100" xml:space="preserve">
<path d="M99.947,71.814L89.516,21.176l3.109-2.369c1.404-1.07,1.676-3.076,0.605-4.48c-1.069-1.405-3.076-1.675-4.48-0.605
	l-0.666,0.507l-0.186-0.9c-0.307-1.484-1.611-2.55-3.127-2.552L26.726,10.68c-0.002,0-0.003,0-0.005,0
	c-1.763,0-3.194,1.428-3.197,3.192c-0.003,1.766,1.426,3.2,3.192,3.203l55.445,0.091l0.28,1.362L55.747,38.865
	c-3.207,0.002-6.559,0.004-10.019,0.005l-32.63-24.814c-1.407-1.069-3.412-0.797-4.48,0.61c-1.069,1.405-0.796,3.411,0.61,4.48
	l26.18,19.909C12.425,41.489,0.722,70.148,0.215,71.421c-0.393,0.985-0.271,2.103,0.325,2.979c0.595,0.877,1.586,1.4,2.645,1.4
	c0.001,0,0.003,0,0.005,0l4.959-0.008c-0.344,0.98-0.207,2.107,0.47,2.997c0.629,0.826,1.582,1.26,2.545,1.26
	c0.675,0,1.356-0.213,1.935-0.653l4.748-3.617l65.719-0.103l5.336,4.058c0.578,0.439,1.259,0.652,1.934,0.652
	c0.964,0,1.918-0.435,2.547-1.262c0.787-1.035,0.842-2.393,0.258-3.464l3.18-0.005c0.961-0.002,1.869-0.436,2.476-1.18
	C99.9,73.732,100.141,72.755,99.947,71.814z M85.717,69.279L56.02,46.696l1.888-1.438c14.206-0.01,25.3-0.028,30.032-0.037
	l4.955,24.046L85.717,69.279z M83.872,25.476l2.751,13.354c-4.09,0.007-11.248,0.019-20.314,0.028L83.872,25.476z M38.525,45.266
	c1.705,0,3.387,0,5.049,0l1.889,1.436L15.686,69.389L8.243,69.4C12.434,61.398,22.833,45.266,38.525,45.266z M26.257,69.371
	l24.485-18.654l24.432,18.579L26.257,69.371z"/>
</svg>
