<?xml version="1.0" encoding="utf-8"?>
<!-- Generator: Adobe Illustrator 15.1.0, SVG Export Plug-In . SVG Version: 6.00 Build 0)  -->
<!DOCTYPE svg PUBLIC "-//W3C//DTD SVG 1.1//EN" "http://www.w3.org/Graphics/SVG/1.1/DTD/svg11.dtd">
<svg version="1.1" id="Layer_1" xmlns="http://www.w3.org/2000/svg" xmlns:xlink="http://www.w3.org/1999/xlink" x="0px" y="0px"
	 width="100px" height="100px" viewBox="0 0 100 100" enable-background="new 0 0 100 100" xml:space="preserve">
<path d="M98.014,79.139l-17.146-6.443l10.442-20.885l6.527-2.458c1.57-0.591,2.364-2.344,1.771-3.915
	c-0.59-1.571-2.342-2.367-3.914-1.773l-0.385,0.146l4.352-8.705c0.751-1.501,0.143-3.326-1.357-4.077
	c-1.503-0.749-3.328-0.143-4.078,1.359l-4,8.001c-2.974,0.349-4.688,1.895-5.979,3.063c-1.229,1.113-1.78,1.564-3.148,1.564
	c-1.367,0-1.92-0.451-3.146-1.564c-1.462-1.325-3.465-3.139-7.23-3.139c-3.768,0-5.771,1.815-7.23,3.14
	c-1.227,1.112-1.779,1.563-3.145,1.563c-1.363,0-1.916-0.451-3.142-1.563c-1.46-1.325-3.46-3.14-7.225-3.14
	c-3.764,0-5.764,1.815-7.223,3.141c-1.225,1.112-1.775,1.563-3.138,1.563c-1.363,0-1.915-0.451-3.14-1.563
	c-1.46-1.325-3.461-3.141-7.227-3.141s-5.767,1.815-7.227,3.141c-1.225,1.111-1.776,1.562-3.138,1.562
	c-1.364,0-1.915-0.451-3.141-1.563c-1.302-1.182-3.043-2.745-6.073-3.071l-3.899-7.798c-0.75-1.501-2.576-2.11-4.077-1.359
	c-1.501,0.75-2.11,2.576-1.359,4.077l4.392,8.784l-0.605-0.228c-1.571-0.591-3.323,0.205-3.914,1.776
	c-0.59,1.571,0.205,3.323,1.776,3.914l6.741,2.533l10.238,20.475l-16.98,6.394c-1.571,0.591-2.364,2.344-1.773,3.913
	c0.458,1.22,1.615,1.971,2.844,1.971c0.356,0,0.718-0.063,1.07-0.196L21.7,78.02l2.161,4.322c0.515,1.029,1.567,1.68,2.718,1.68
	c0.004,0,0.008,0,0.012,0l46.847-0.189c1.146-0.005,2.191-0.654,2.705-1.68l1.994-3.99l17.739,6.666
	c0.353,0.132,0.714,0.195,1.069,0.195c1.229,0,2.387-0.752,2.845-1.972C100.379,81.48,99.584,79.729,98.014,79.139z M75.148,70.546
	l-16.817-6.319l24.608-9.266L75.148,70.546z M29.252,46.391c1.365,0,1.917,0.451,3.143,1.563c1.46,1.325,3.46,3.139,7.224,3.139
	c3.764,0,5.763-1.815,7.223-3.14c1.225-1.112,1.776-1.563,3.138-1.563c1.364,0,1.917,0.451,3.141,1.563
	c1.46,1.325,3.46,3.14,7.225,3.14c3.766,0,5.766-1.813,7.228-3.138c1.228-1.113,1.78-1.564,3.147-1.564
	c1.369,0,1.922,0.452,3.149,1.564c0.926,0.839,2.071,1.871,3.741,2.517l-27.912,10.51L22.026,50.585
	c1.852-0.632,3.099-1.736,4.083-2.63C27.335,46.842,27.887,46.391,29.252,46.391z M17.095,55.225l23.973,9.008l-16.384,6.17
	L17.095,55.225z M71.541,77.761l-43.09,0.175l-1.035-2.068l22.283-8.391l22.715,8.535L71.541,77.761z"/>
</svg>
