<?xml version="1.0" encoding="utf-8"?>
<!-- Generator: Adobe Illustrator 15.1.0, SVG Export Plug-In . SVG Version: 6.00 Build 0)  -->
<!DOCTYPE svg PUBLIC "-//W3C//DTD SVG 1.1//EN" "http://www.w3.org/Graphics/SVG/1.1/DTD/svg11.dtd">
<svg version="1.1" id="Layer_1" xmlns="http://www.w3.org/2000/svg" xmlns:xlink="http://www.w3.org/1999/xlink" x="0px" y="0px"
	 width="100px" height="100px" viewBox="0 0 100 100" enable-background="new 0 0 100 100" xml:space="preserve">
<path d="M98.775,83.534l-4.377-3.328V19.694l4.205-3.203c1.316-1.004,1.571-2.886,0.567-4.204c-1.005-1.318-2.888-1.573-4.205-0.568
	l-0.567,0.432V8.614c0-1.657-1.342-3-3-3H8.6c-1.657,0-3,1.343-3,3v4.068l-0.745-0.566c-1.32-1.003-3.202-0.746-4.204,0.572
	c-1.003,1.319-0.747,3.201,0.572,4.204L5.6,20.22v59.583l-4.379,3.336c-1.318,1.006-1.573,2.887-0.568,4.205
	c0.59,0.774,1.484,1.182,2.389,1.182c0.634,0,1.272-0.199,1.815-0.612L5.6,87.346v4.068c0,1.656,1.343,3,3,3h82.798
	c1.658,0,3-1.344,3-3v-3.672l0.746,0.566c0.543,0.414,1.182,0.612,1.813,0.612c0.905,0,1.8-0.407,2.39-1.185
	C100.352,86.419,100.096,84.537,98.775,83.534z M11.6,66.672c0.924,2.12,2.021,4.146,3.27,6.068l-3.27,2.49V66.672z M14.128,49.999
	c0-7.014,2.031-13.559,5.525-19.092l25.088,19.077L19.655,69.095C16.16,63.561,14.128,57.016,14.128,49.999z M23.265,26.115
	c6.573-7.349,16.12-11.986,26.732-11.986c10.47,0,19.905,4.509,26.468,11.685L49.693,46.211L23.265,26.115z M49.697,53.751
	L76.51,74.139C69.943,81.342,60.49,85.87,49.998,85.87c-10.612,0-20.157-4.636-26.73-11.984L49.697,53.751z M54.648,49.979
	l25.479-19.412c3.628,5.604,5.744,12.273,5.744,19.432c0,7.136-2.104,13.787-5.711,19.38L54.648,49.979z M84.914,26.921l3.484-2.656
	v9.061C87.421,31.083,86.253,28.941,84.914,26.921z M88.398,16.723l-7.149,5.448c-4.005-4.492-8.96-8.115-14.549-10.556h21.698
	V16.723z M11.6,11.614h21.696c-5.714,2.496-10.763,6.23-14.813,10.864L11.6,17.245V11.614z M14.865,27.265
	c-1.246,1.919-2.341,3.944-3.265,6.062v-8.544L14.865,27.265z M11.6,82.773l6.888-5.248c4.065,4.648,9.135,8.394,14.873,10.889H11.6
	V82.773z M88.398,88.414H66.637c5.635-2.45,10.629-6.104,14.657-10.639l7.104,5.404V88.414z M84.95,73.021
	c1.323-2.004,2.479-4.127,3.448-6.35v8.973L84.95,73.021z"/>
</svg>
