<?xml version="1.0" encoding="utf-8"?>
<!-- Generator: Adobe Illustrator 15.1.0, SVG Export Plug-In . SVG Version: 6.00 Build 0)  -->
<!DOCTYPE svg PUBLIC "-//W3C//DTD SVG 1.1//EN" "http://www.w3.org/Graphics/SVG/1.1/DTD/svg11.dtd">
<svg version="1.1" id="Layer_1" xmlns="http://www.w3.org/2000/svg" xmlns:xlink="http://www.w3.org/1999/xlink" x="0px" y="0px"
	 width="100px" height="100px" viewBox="0 0 100 100" enable-background="new 0 0 100 100" xml:space="preserve">
<path d="M99.617,85.287L74.963,42.246L97.08,27.298c1.46-0.987,1.843-2.97,0.855-4.43c-0.985-1.461-2.971-1.845-4.431-0.857
	L71.781,36.693l-18.84-32.89c-0.584-1.018-1.668-1.646-2.841-1.646c-0.001,0-0.002,0-0.003,0c-1.173,0-2.256,0.627-2.841,1.644
	L28.139,37.035L6.361,22.345c-1.459-0.985-3.444-0.601-4.429,0.861c-0.986,1.461-0.6,3.444,0.861,4.429L24.95,42.581L0.387,85.283
	c-0.583,1.013-0.581,2.261,0.004,3.273c0.586,1.014,1.667,1.637,2.837,1.637h93.543c1.17,0,2.25-0.623,2.836-1.635
	C100.195,87.548,100.198,86.302,99.617,85.287z M87.27,76.923L55.432,55.445l14.084-9.519L87.27,76.923z M85.816,83.641H13.715
	l36.017-24.342L85.816,83.641z M50.091,12.016l16.244,28.358L49.728,51.6L33.586,40.71L50.091,12.016z M44.028,55.451L13.074,76.372
	l17.322-30.116L44.028,55.451z"/>
</svg>
