<?xml version="1.0" encoding="utf-8"?>
<!-- Generator: Adobe Illustrator 15.1.0, SVG Export Plug-In . SVG Version: 6.00 Build 0)  -->
<!DOCTYPE svg PUBLIC "-//W3C//DTD SVG 1.1//EN" "http://www.w3.org/Graphics/SVG/1.1/DTD/svg11.dtd">
<svg version="1.1" id="Layer_1" xmlns="http://www.w3.org/2000/svg" xmlns:xlink="http://www.w3.org/1999/xlink" x="0px" y="0px"
	 width="100px" height="100px" viewBox="0 0 100 100" enable-background="new 0 0 100 100" xml:space="preserve">
<path d="M99.044,77.723L83.316,65.764c3.136-4.31,5.451-9.248,6.728-14.594c0.021-0.081,0.036-0.163,0.056-0.245
	c0.086-0.364,0.176-0.728,0.252-1.097c0.597-2.786,0.916-5.673,0.916-8.635c0-7.523-2.037-14.575-5.574-20.651l13.176-10.037
	c1.339-1.021,1.598-2.934,0.576-4.272c-1.021-1.34-2.934-1.598-4.271-0.577l-12.931,9.852C74.688,6.064,63.078,0,50.073,0
	C36.921,0,25.198,6.203,17.651,15.829L4.793,6.052C3.454,5.032,1.54,5.293,0.522,6.633c-1.02,1.34-0.759,3.252,0.581,4.271
	l13.145,9.995c-3.41,5.996-5.368,12.918-5.368,20.294c0,2.04,0.157,4.042,0.445,6.003c0.922,6.766,3.489,13.006,7.288,18.31
	L1.101,77.325c-1.339,1.021-1.598,2.933-0.578,4.272c0.6,0.786,1.508,1.2,2.427,1.2c0.644,0,1.293-0.203,1.845-0.624l15.728-11.982
	c7.476,7.721,17.941,12.527,29.532,12.527c11.479,0,21.855-4.71,29.315-12.297l15.981,12.153c0.553,0.419,1.2,0.622,1.844,0.622
	c0.921,0,1.83-0.415,2.43-1.203C100.645,80.654,100.384,78.742,99.044,77.723z"/>
</svg>
