<?xml version="1.0" encoding="utf-8"?>
<!-- Generator: Adobe Illustrator 15.1.0, SVG Export Plug-In . SVG Version: 6.00 Build 0)  -->
<!DOCTYPE svg PUBLIC "-//W3C//DTD SVG 1.1//EN" "http://www.w3.org/Graphics/SVG/1.1/DTD/svg11.dtd">
<svg version="1.1" id="Layer_1" xmlns="http://www.w3.org/2000/svg" xmlns:xlink="http://www.w3.org/1999/xlink" x="0px" y="0px"
	 width="100px" height="100px" viewBox="0 0 100 100" enable-background="new 0 0 100 100" xml:space="preserve">
<path d="M99.044,77.891l-15.856-12.06c5.072-6.849,8.08-15.313,8.08-24.471c0-7.523-2.037-14.575-5.574-20.651l13.176-10.038
	c1.339-1.02,1.598-2.933,0.576-4.272c-1.021-1.34-2.934-1.598-4.271-0.578l-12.931,9.852C74.688,6.231,63.078,0.167,50.073,0.167
	c-13.152,0-24.875,6.203-32.421,15.829L4.793,6.218C3.454,5.199,1.54,5.459,0.522,6.799c-1.02,1.34-0.759,3.252,0.581,4.271
	l13.145,9.996C10.838,27.062,8.88,33.984,8.88,41.36c0,9.037,2.933,17.398,7.885,24.199L1.101,77.492
	c-1.339,1.021-1.598,2.933-0.578,4.271c0.6,0.787,1.508,1.201,2.427,1.201c0.644,0,1.293-0.203,1.845-0.624l15.917-12.126
	c7.478,7.608,17.875,12.34,29.361,12.34c11.364,0,21.668-4.627,29.128-12.095l16.15,12.282c0.553,0.419,1.2,0.622,1.844,0.622
	c0.921,0,1.83-0.415,2.43-1.203C100.645,80.82,100.384,78.909,99.044,77.891z M85.169,41.36c0,7.772-2.543,14.958-6.835,20.781
	L54.8,44.245l26.005-19.812C83.583,29.456,85.169,35.225,85.169,41.36z M50.073,6.264c11.03,0,20.883,5.12,27.321,13.103
	l-27.628,21.05L22.501,19.684C28.933,11.521,38.897,6.264,50.073,6.264z M14.977,41.36c0-5.989,1.511-11.631,4.167-16.569
	L44.733,44.25L21.615,61.863C17.444,56.091,14.977,49.01,14.977,41.36z M50.073,76.457c-9.509,0-18.141-3.807-24.467-9.971
	l24.163-18.408L74.29,66.727C67.986,72.747,59.457,76.457,50.073,76.457z"/>
</svg>
