<?xml version="1.0" encoding="utf-8"?>
<!-- Generator: Adobe Illustrator 15.1.0, SVG Export Plug-In . SVG Version: 6.00 Build 0)  -->
<!DOCTYPE svg PUBLIC "-//W3C//DTD SVG 1.1//EN" "http://www.w3.org/Graphics/SVG/1.1/DTD/svg11.dtd">
<svg version="1.1" id="Layer_1" xmlns="http://www.w3.org/2000/svg" xmlns:xlink="http://www.w3.org/1999/xlink" x="0px" y="0px"
	 width="100px" height="100px" viewBox="0 0 100 100" enable-background="new 0 0 100 100" xml:space="preserve">
<path fill="none" stroke="#000000" stroke-width="6.7491" stroke-linecap="round" stroke-linejoin="round" d="M6.274,49.998
	c0-24.145,19.579-43.722,43.723-43.722c24.147,0,43.728,19.577,43.728,43.722c0,24.143-19.58,43.725-43.728,43.725
	C25.853,93.723,6.274,74.141,6.274,49.998z"/>
<path d="M56.816,49.998c0-3.689,2.998-6.681,6.687-6.681c3.694,0,6.683,2.992,6.683,6.681c0,3.697-2.987,6.686-6.683,6.686
	C59.814,56.684,56.816,53.693,56.816,49.998z"/>
<path d="M29.814,49.998c0-3.689,2.989-6.681,6.681-6.681s6.687,2.992,6.687,6.681c0,3.697-2.994,6.686-6.687,6.686
	C32.803,56.684,29.814,53.693,29.814,49.998z"/>
<path d="M96.568,99.958H3.432c-1.864,0-3.375-1.513-3.375-3.375V3.447c0-1.864,1.511-3.375,3.375-3.375h93.136
	c1.863,0,3.375,1.511,3.375,3.375v93.136C99.943,98.445,98.432,99.958,96.568,99.958z M6.806,93.208h86.387V6.821H6.806V93.208z"/>
</svg>
