<?xml version="1.0" encoding="utf-8"?>
<!-- Generator: Adobe Illustrator 15.1.0, SVG Export Plug-In . SVG Version: 6.00 Build 0)  -->
<!DOCTYPE svg PUBLIC "-//W3C//DTD SVG 1.1//EN" "http://www.w3.org/Graphics/SVG/1.1/DTD/svg11.dtd">
<svg version="1.1" id="Layer_1" xmlns="http://www.w3.org/2000/svg" xmlns:xlink="http://www.w3.org/1999/xlink" x="0px" y="0px"
	 width="100px" height="100px" viewBox="0 0 100 100" enable-background="new 0 0 100 100" xml:space="preserve">
<line fill="none" stroke="#000000" stroke-width="6.0777" stroke-linecap="round" stroke-linejoin="round" x1="16.986" y1="88.966" x2="83.141" y2="88.966"/>
<path d="M98.305,31.028c-1.503-0.749-3.328-0.143-4.078,1.359l-4,8.001c-2.974,0.349-4.688,1.895-5.979,3.063
	c-1.229,1.113-1.78,1.564-3.148,1.564c-1.367,0-1.92-0.451-3.146-1.564c-1.462-1.325-3.465-3.139-7.23-3.139
	c-3.768,0-5.771,1.815-7.23,3.14c-1.227,1.112-1.779,1.563-3.145,1.563c-1.363,0-1.916-0.451-3.142-1.563
	c-1.46-1.325-3.46-3.14-7.225-3.14c-3.764,0-5.764,1.815-7.223,3.141c-1.225,1.112-1.775,1.563-3.138,1.563
	c-1.363,0-1.915-0.451-3.14-1.563c-1.46-1.325-3.461-3.141-7.227-3.141s-5.767,1.815-7.227,3.141
	c-1.225,1.111-1.776,1.562-3.138,1.562c-1.364,0-1.915-0.451-3.141-1.563c-1.302-1.182-3.043-2.745-6.073-3.071l-3.899-7.798
	c-0.75-1.501-2.576-2.11-4.077-1.359c-1.501,0.75-2.11,2.576-1.359,4.077l23.521,47.04c0.515,1.029,1.567,1.681,2.718,1.681
	c0.004,0,0.008,0,0.012,0l46.846-0.19c1.146-0.005,2.192-0.654,2.705-1.681l23.521-47.045
	C100.413,33.604,99.805,31.779,98.305,31.028z M71.541,77.761l-43.09,0.175L14.518,50.071c1.136,0.591,2.542,1.023,4.369,1.023
	c3.763,0,5.763-1.813,7.223-3.139c1.226-1.112,1.777-1.563,3.143-1.563c1.366,0,1.917,0.451,3.143,1.563
	c1.46,1.325,3.46,3.139,7.224,3.139c3.764,0,5.763-1.815,7.223-3.14c1.225-1.112,1.776-1.563,3.138-1.563
	c1.365,0,1.916,0.451,3.141,1.563c1.46,1.325,3.46,3.14,7.226,3.14c3.764,0,5.766-1.813,7.227-3.138
	c1.228-1.113,1.779-1.564,3.148-1.564c1.368,0,1.922,0.452,3.148,1.564c1.462,1.325,3.463,3.138,7.229,3.138
	c1.771,0,3.143-0.408,4.26-0.97L71.541,77.761z"/>
<path d="M35.574,68.264l3.751-0.414c0.092,0.764,0.331,1.33,0.717,1.696c0.386,0.368,0.896,0.552,1.531,0.552
	c0.8,0,1.48-0.367,2.041-1.104c0.561-0.735,0.919-2.262,1.076-4.579c-0.975,1.132-2.193,1.696-3.655,1.696
	c-1.59,0-2.963-0.613-4.116-1.842c-1.154-1.228-1.731-2.824-1.731-4.791c0-2.052,0.609-3.703,1.827-4.959
	c1.218-1.254,2.77-1.883,4.655-1.883c2.05,0,3.732,0.793,5.047,2.379c1.315,1.586,1.972,4.195,1.972,7.827
	c0,3.695-0.685,6.362-2.055,7.998c-1.37,1.638-3.154,2.455-5.351,2.455c-1.582,0-2.859-0.421-3.834-1.262
	C36.474,71.193,35.85,69.938,35.574,68.264z M44.345,59.796c0-1.251-0.288-2.221-0.862-2.91c-0.575-0.688-1.239-1.034-1.993-1.034
	c-0.717,0-1.313,0.282-1.786,0.849c-0.474,0.565-0.71,1.491-0.71,2.778c0,1.307,0.257,2.265,0.772,2.875
	c0.515,0.611,1.159,0.918,1.931,0.918c0.745,0,1.373-0.295,1.883-0.883C44.09,61.8,44.345,60.936,44.345,59.796z"/>
<path d="M51.255,67.739l3.861-0.4c0.11,0.874,0.437,1.565,0.979,2.076c0.541,0.51,1.168,0.767,1.875,0.767
	c0.809,0,1.493-0.33,2.055-0.986c0.562-0.657,0.842-1.648,0.842-2.973c0-1.24-0.278-2.173-0.834-2.793
	c-0.557-0.621-1.28-0.931-2.172-0.931c-1.113,0-2.11,0.491-2.993,1.476l-3.146-0.455l1.986-10.522h10.247v3.627h-7.31l-0.606,3.435
	c0.862-0.433,1.746-0.647,2.647-0.647c1.719,0,3.176,0.626,4.371,1.876c1.194,1.25,1.793,2.873,1.793,4.868
	c0,1.663-0.482,3.149-1.447,4.454c-1.315,1.783-3.141,2.676-5.477,2.676c-1.865,0-3.388-0.501-4.564-1.503
	C52.188,70.78,51.484,69.432,51.255,67.739z"/>
</svg>
