<?xml version="1.0" encoding="utf-8"?>
<!-- Generator: Adobe Illustrator 15.1.0, SVG Export Plug-In . SVG Version: 6.00 Build 0)  -->
<!DOCTYPE svg PUBLIC "-//W3C//DTD SVG 1.1//EN" "http://www.w3.org/Graphics/SVG/1.1/DTD/svg11.dtd">
<svg version="1.1" id="Layer_1" xmlns="http://www.w3.org/2000/svg" xmlns:xlink="http://www.w3.org/1999/xlink" x="0px" y="0px"
	 width="100px" height="100px" viewBox="0 0 100 100" enable-background="new 0 0 100 100" xml:space="preserve">
<path d="M98.305,31.028c-1.503-0.749-3.328-0.143-4.078,1.359l-4,8.001c-2.974,0.349-4.688,1.895-5.979,3.063
	c-1.229,1.113-1.78,1.564-3.148,1.564c-1.367,0-1.92-0.451-3.146-1.564c-1.462-1.325-3.465-3.139-7.23-3.139
	c-3.768,0-5.771,1.815-7.23,3.14c-1.227,1.112-1.779,1.563-3.145,1.563c-1.363,0-1.916-0.451-3.142-1.563
	c-1.46-1.325-3.46-3.14-7.225-3.14c-3.764,0-5.764,1.815-7.223,3.141c-1.225,1.112-1.775,1.563-3.138,1.563
	c-1.363,0-1.915-0.451-3.14-1.563c-1.46-1.325-3.461-3.141-7.227-3.141s-5.767,1.815-7.227,3.141
	c-1.225,1.111-1.776,1.562-3.138,1.562c-1.364,0-1.915-0.451-3.141-1.563c-1.302-1.182-3.043-2.745-6.073-3.071l-3.899-7.798
	c-0.75-1.501-2.576-2.11-4.077-1.359c-1.501,0.75-2.11,2.576-1.359,4.077l23.521,47.04c0.515,1.029,1.567,1.681,2.718,1.681
	c0.004,0,0.008,0,0.012,0l46.846-0.19c1.146-0.005,2.192-0.654,2.705-1.681l23.521-47.045
	C100.413,33.604,99.805,31.779,98.305,31.028z M71.541,77.761l-43.09,0.175L14.518,50.071c1.136,0.591,2.542,1.023,4.369,1.023
	c3.763,0,5.763-1.813,7.223-3.139c1.226-1.112,1.777-1.563,3.143-1.563c1.366,0,1.917,0.451,3.143,1.563
	c1.46,1.325,3.46,3.139,7.224,3.139c3.764,0,5.763-1.815,7.223-3.14c1.225-1.112,1.776-1.563,3.138-1.563
	c1.365,0,1.916,0.451,3.141,1.563c1.46,1.325,3.46,3.14,7.226,3.14c3.764,0,5.766-1.813,7.227-3.138
	c1.228-1.113,1.779-1.564,3.148-1.564c1.368,0,1.922,0.452,3.148,1.564c1.462,1.325,3.463,3.138,7.229,3.138
	c1.771,0,3.143-0.408,4.26-0.97L71.541,77.761z"/>
<path d="M43.09,72.938V68.87h-8.275v-3.394l8.771-12.84h3.254v12.826h2.51v3.406h-2.51v4.068H43.09L43.09,72.938z M43.09,65.464
	v-6.909l-4.647,6.909H43.09z"/>
<path d="M57.751,52.639c1.958,0,3.489,0.698,4.592,2.096c1.315,1.654,1.974,4.399,1.974,8.233c0,3.824-0.662,6.573-1.986,8.247
	c-1.094,1.379-2.62,2.068-4.578,2.068c-1.968,0-3.554-0.756-4.758-2.27c-1.205-1.513-1.807-4.209-1.807-8.089
	c0-3.806,0.66-6.546,1.984-8.22C54.266,53.327,55.792,52.639,57.751,52.639z M57.751,55.852c-0.469,0-0.888,0.149-1.255,0.448
	c-0.368,0.3-0.653,0.834-0.855,1.606c-0.267,1.002-0.399,2.688-0.399,5.062s0.12,4.002,0.358,4.89s0.541,1.478,0.903,1.771
	s0.779,0.441,1.248,0.441c0.47,0,0.888-0.149,1.255-0.448s0.652-0.835,0.854-1.606c0.268-0.992,0.4-2.676,0.4-5.048
	s-0.119-4.002-0.357-4.89c-0.239-0.887-0.541-1.479-0.903-1.778C58.637,56.001,58.221,55.852,57.751,55.852z"/>
</svg>
