<?xml version="1.0" encoding="utf-8"?>
<!-- Generator: Adobe Illustrator 15.1.0, SVG Export Plug-In . SVG Version: 6.00 Build 0)  -->
<!DOCTYPE svg PUBLIC "-//W3C//DTD SVG 1.1//EN" "http://www.w3.org/Graphics/SVG/1.1/DTD/svg11.dtd">
<svg version="1.1" id="Layer_1" xmlns="http://www.w3.org/2000/svg" xmlns:xlink="http://www.w3.org/1999/xlink" x="0px" y="0px"
	 width="100px" height="100px" viewBox="0 0 100 100" enable-background="new 0 0 100 100" xml:space="preserve">
<path d="M98.305,31.028c-1.503-0.749-3.328-0.143-4.078,1.359l-4,8.001c-2.974,0.349-4.688,1.895-5.979,3.063
	c-1.229,1.113-1.78,1.564-3.148,1.564c-1.367,0-1.92-0.451-3.146-1.564c-1.365-1.237-3.223-2.883-6.529-3.097
	c0.977-3.348,2.297-7.053,6.626-10.581c0.644-0.523,0.739-1.468,0.216-2.11c-0.522-0.643-1.469-0.739-2.109-0.216
	c-5.432,4.424-6.778,9.141-7.861,12.932c-0.253,0.885-0.49,1.72-0.763,2.48c-0.614,1.717-1.409,2.888-2.415,4.371
	c-1.221,1.8-2.604,3.838-4.064,7.411c-0.359,0.881-0.712,1.76-1.055,2.619c-1.057,2.645-2.425,6.07-3.43,7.588
	c0.209-0.6,0.541-1.367,0.83-2.039c0.533-1.233,1.194-2.77,1.806-4.601c1.342-4.031,1.255-6.112-0.281-6.748
	c-1.854-0.767-3.313,1.54-4.616,4.146c-2.966,5.931-6.112,10.021-7.506,10.942c0.263-1.489,2.518-5.104,4.213-7.819
	c0.379-0.606,0.766-1.229,1.153-1.857c2.037-3.303,2.978-5.566,1.371-6.648c-1.164-0.785-2.713-0.034-4.251,2.063
	c-0.283,0.388-0.687,0.978-1.177,1.692c-3.936,5.746-6.601,9.022-7.938,9.763c0.19-1.95,4.716-7.666,6.723-10.2l0.708-0.896
	c1.827-2.318,3.026-4.056,1.811-5.294c-1.138-1.16-2.761-0.301-5.549,1.809c-0.954,0.724-2.063,1.974-3.237,3.296
	c-1.55,1.746-4.144,4.668-5.366,4.705c-0.042,0-0.076,0.003-0.128-0.033c0.014-1.794,6.188-7.675,8.849-10.209
	c2.031-1.934,3.635-3.462,4.413-4.49c2.288-3.018,1.57-4.606,0.938-5.285c-0.738-0.793-2.233-1.181-4.219,0.111
	c-1.568,1.027-6.425,2.087-7.962,1.286c-0.194-0.102-0.196-0.149-0.199-0.264c-0.004-0.133,0-0.231,0.006-0.301
	c0.227-0.051,0.618-0.095,0.947-0.131c1.678-0.187,4.485-0.499,8.036-3.064c3.613-2.611,7.788-3.842,11.144-4.831
	c2.447-0.722,4.218-1.243,5.267-2.142c2.142-1.837,5.336-6.181,5.473-6.365c0.488-0.668,0.346-1.607-0.323-2.097
	c-0.665-0.489-1.604-0.347-2.097,0.322c-0.862,1.176-3.443,4.523-5.006,5.862c-0.562,0.48-2.392,1.02-4.162,1.542
	c-3.385,0.998-8.022,2.365-12.051,5.277c-2.911,2.103-5.049,2.341-6.61,2.515c-1.476,0.164-3.706,0.412-3.621,3.498
	c0.035,1.24,0.677,2.249,1.809,2.839c2.908,1.52,8.584-0.057,10.712-1.263c-0.125,0.201-0.279,0.428-0.471,0.681
	c-0.2,0.264-0.514,0.612-0.895,1.008c-0.958,0.573-1.71,1.246-2.352,1.828c-1.225,1.112-1.775,1.563-3.138,1.563
	c-1.363,0-1.915-0.451-3.14-1.563c-1.46-1.325-3.461-3.141-7.227-3.141s-5.767,1.815-7.227,3.141
	c-1.225,1.111-1.776,1.562-3.138,1.562c-1.364,0-1.915-0.451-3.141-1.563c-1.302-1.182-3.043-2.745-6.073-3.071l-3.899-7.798
	c-0.75-1.501-2.576-2.11-4.077-1.359c-1.501,0.75-2.11,2.576-1.359,4.077l23.521,47.04c0.515,1.029,1.567,1.68,2.718,1.68
	c0.004,0,0.008,0,0.012,0l46.847-0.189c1.146-0.005,2.191-0.654,2.705-1.68l23.521-47.046
	C100.413,33.604,99.805,31.779,98.305,31.028z M71.541,77.761l-43.09,0.175L14.518,50.071c1.136,0.591,2.542,1.023,4.369,1.023
	c3.763,0,5.763-1.813,7.223-3.139c1.226-1.112,1.777-1.563,3.143-1.563c1.366,0,1.917,0.451,3.143,1.563
	c0.928,0.842,2.091,1.866,3.773,2.508c-2.484,2.696-4.01,4.914-4.032,6.696c-0.01,0.793,0.267,1.493,0.8,2.026
	c0.666,0.666,1.506,0.992,2.415,0.976c1.663-0.052,3.337-1.318,4.991-2.974c-2.16,3.06-3.365,5.427-3.127,7.258
	c0.105,0.813,0.494,1.492,1.124,1.965c0.545,0.408,1.208,0.564,1.924,0.443c1.296-0.213,2.769-1.383,4.528-3.394
	c-0.854,1.784-1.197,3.151-0.901,4.278c0.195,0.742,0.654,1.328,1.328,1.697c0.285,0.154,0.69,0.303,1.202,0.303
	c0.269,0,0.567-0.041,0.892-0.144c2.663-0.836,5.973-5.973,7.964-9.467c-0.217,0.526-0.43,1.021-0.633,1.492
	c-1.147,2.657-2.334,5.407,0.355,6.688c0.639,0.305,1.33,0.327,1.997,0.066c2.026-0.793,3.378-3.977,5.785-10.003
	c0.34-0.853,0.688-1.724,1.046-2.599c1.341-3.279,2.631-5.182,3.77-6.859c0.463-0.681,0.911-1.348,1.336-2.059
	c0.515-0.318,1.023-0.465,1.787-0.465c1.369,0,1.922,0.452,3.149,1.564c1.462,1.325,3.463,3.138,7.229,3.138
	c1.771,0,3.142-0.408,4.258-0.97L71.541,77.761z"/>
</svg>
