<?xml version="1.0" encoding="utf-8"?>
<!-- Generator: Adobe Illustrator 15.1.0, SVG Export Plug-In . SVG Version: 6.00 Build 0)  -->
<!DOCTYPE svg PUBLIC "-//W3C//DTD SVG 1.1//EN" "http://www.w3.org/Graphics/SVG/1.1/DTD/svg11.dtd">
<svg version="1.1" id="Layer_1" xmlns="http://www.w3.org/2000/svg" xmlns:xlink="http://www.w3.org/1999/xlink" x="0px" y="0px"
	 width="100px" height="100px" viewBox="0 0 100 100" enable-background="new 0 0 100 100" xml:space="preserve">
<path d="M98.305,31.028c-1.504-0.749-3.328-0.143-4.078,1.359l-4,8.001c-2.975,0.349-4.688,1.895-5.979,3.063
	c-1.229,1.113-1.78,1.564-3.147,1.564s-1.92-0.451-3.146-1.564c-1.462-1.325-3.465-3.139-7.23-3.139
	c-3.768,0-5.771,1.815-7.229,3.14c-1.228,1.112-1.779,1.563-3.146,1.563c-1.363,0-1.916-0.451-3.142-1.563
	c-1.46-1.325-3.46-3.14-7.225-3.14c-3.764,0-5.764,1.815-7.223,3.141c-1.225,1.112-1.775,1.563-3.138,1.563
	c-1.363,0-1.915-0.451-3.14-1.563c-1.46-1.325-3.461-3.141-7.227-3.141s-5.767,1.815-7.227,3.141
	c-1.225,1.111-1.776,1.562-3.138,1.562c-1.364,0-1.915-0.451-3.141-1.563c-1.302-1.182-3.043-2.745-6.073-3.071l-3.899-7.798
	c-0.75-1.501-2.576-2.11-4.077-1.359c-1.501,0.75-2.11,2.576-1.359,4.077l23.521,47.04c0.515,1.029,1.567,1.681,2.718,1.681
	c0.004,0,0.008,0,0.012,0l46.846-0.189c1.146-0.005,2.191-0.654,2.705-1.682l23.521-47.044
	C100.412,33.604,99.805,31.779,98.305,31.028z M71.54,77.761l-43.089,0.175L14.518,50.071c1.136,0.591,2.542,1.023,4.369,1.023
	c3.763,0,5.763-1.813,7.223-3.139c1.226-1.112,1.777-1.563,3.143-1.563c1.366,0,1.917,0.451,3.143,1.563
	c1.46,1.325,3.46,3.139,7.224,3.139c3.764,0,5.763-1.815,7.223-3.14c1.225-1.112,1.776-1.563,3.138-1.563
	c1.365,0,1.916,0.451,3.141,1.563c1.46,1.325,3.46,3.14,7.226,3.14c3.764,0,5.766-1.813,7.228-3.138
	c1.228-1.113,1.778-1.564,3.147-1.564c1.368,0,1.922,0.452,3.148,1.564c1.462,1.325,3.463,3.138,7.229,3.138
	c1.771,0,3.144-0.408,4.26-0.97L71.54,77.761z"/>
<path d="M35.52,67.573l3.751-0.455c0.12,0.957,0.441,1.688,0.965,2.192c0.524,0.506,1.159,0.76,1.903,0.76
	c0.8,0,1.473-0.305,2.021-0.91c0.547-0.607,0.82-1.426,0.82-2.455c0-0.975-0.262-1.747-0.786-2.316
	c-0.524-0.57-1.164-0.854-1.917-0.854c-0.497,0-1.09,0.097-1.779,0.289l0.428-3.158c1.048,0.027,1.848-0.2,2.399-0.684
	c0.551-0.482,0.828-1.125,0.828-1.924c0-0.681-0.203-1.224-0.607-1.627c-0.405-0.404-0.942-0.606-1.614-0.606
	c-0.662,0-1.227,0.229-1.696,0.688c-0.469,0.459-0.754,1.131-0.855,2.014l-3.572-0.605c0.248-1.223,0.623-2.199,1.124-2.931
	s1.2-1.308,2.096-1.726s1.901-0.627,3.013-0.627c1.903,0,3.43,0.606,4.579,1.819c0.947,0.993,1.42,2.115,1.42,3.365
	c0,1.774-0.97,3.19-2.91,4.247c1.159,0.248,2.084,0.806,2.779,1.67c0.695,0.863,1.042,1.906,1.042,3.13
	c0,1.774-0.648,3.287-1.945,4.537c-1.296,1.251-2.91,1.876-4.84,1.876c-1.83,0-3.347-0.526-4.551-1.579
	C36.411,70.65,35.712,69.273,35.52,67.573z"/>
<path d="M57.916,52.639c1.959,0,3.49,0.698,4.592,2.096c1.316,1.654,1.973,4.399,1.973,8.233c0,3.824-0.66,6.573-1.983,8.247
	c-1.095,1.379-2.621,2.068-4.578,2.068c-1.969,0-3.556-0.756-4.758-2.27c-1.205-1.514-1.81-4.209-1.81-8.09
	c0-3.806,0.662-6.546,1.986-8.22C54.432,53.327,55.957,52.639,57.916,52.639z M57.916,55.852c-0.469,0-0.887,0.149-1.254,0.448
	c-0.369,0.3-0.654,0.834-0.855,1.606c-0.268,1.002-0.399,2.688-0.399,5.062s0.12,4.002,0.358,4.89
	c0.238,0.889,0.539,1.479,0.902,1.771s0.779,0.441,1.248,0.441s0.887-0.149,1.256-0.448c0.367-0.299,0.652-0.835,0.854-1.606
	c0.269-0.992,0.4-2.676,0.4-5.048s-0.121-4.002-0.357-4.89c-0.239-0.887-0.541-1.479-0.903-1.778
	C58.801,56.001,58.385,55.852,57.916,55.852z"/>
</svg>
