<?xml version="1.0" encoding="utf-8"?>
<!-- Generator: Adobe Illustrator 15.1.0, SVG Export Plug-In . SVG Version: 6.00 Build 0)  -->
<!DOCTYPE svg PUBLIC "-//W3C//DTD SVG 1.1//EN" "http://www.w3.org/Graphics/SVG/1.1/DTD/svg11.dtd">
<svg version="1.1" id="Layer_1" xmlns="http://www.w3.org/2000/svg" xmlns:xlink="http://www.w3.org/1999/xlink" x="0px" y="0px"
	 width="100px" height="100px" viewBox="0 0 100 100" enable-background="new 0 0 100 100" xml:space="preserve">
<path d="M98.305,31.028c-1.503-0.749-3.328-0.143-4.078,1.359l-4,8.001c-2.974,0.349-4.688,1.895-5.979,3.063
	c-1.229,1.113-1.78,1.564-3.148,1.564c-1.367,0-1.92-0.451-3.146-1.564c-1.462-1.325-3.465-3.139-7.23-3.139
	c-3.768,0-5.771,1.815-7.23,3.14c-1.227,1.112-1.779,1.563-3.145,1.563c-1.363,0-1.916-0.451-3.142-1.563
	c-1.46-1.325-3.46-3.14-7.225-3.14c-3.764,0-5.764,1.815-7.223,3.141c-1.225,1.112-1.775,1.563-3.138,1.563
	c-1.363,0-1.915-0.451-3.14-1.563c-1.46-1.325-3.461-3.141-7.227-3.141s-5.767,1.815-7.227,3.141
	c-1.225,1.111-1.776,1.562-3.138,1.562c-1.364,0-1.915-0.451-3.141-1.563c-1.302-1.182-3.043-2.745-6.073-3.071l-3.899-7.798
	c-0.75-1.501-2.576-2.11-4.077-1.359c-1.501,0.75-2.11,2.576-1.359,4.077l23.521,47.04c0.515,1.029,1.567,1.681,2.718,1.681
	c0.004,0,0.008,0,0.012,0l46.846-0.19c1.146-0.005,2.192-0.654,2.705-1.681l23.521-47.045
	C100.413,33.604,99.805,31.779,98.305,31.028z M71.541,77.761l-43.09,0.175L14.518,50.071c1.136,0.591,2.542,1.023,4.369,1.023
	c3.763,0,5.763-1.813,7.223-3.139c1.226-1.112,1.777-1.563,3.143-1.563c1.366,0,1.917,0.451,3.143,1.563
	c1.46,1.325,3.46,3.139,7.224,3.139c3.764,0,5.763-1.815,7.223-3.14c1.225-1.112,1.776-1.563,3.138-1.563
	c1.365,0,1.916,0.451,3.141,1.563c1.46,1.325,3.46,3.14,7.226,3.14c3.764,0,5.766-1.813,7.227-3.138
	c1.228-1.113,1.779-1.564,3.148-1.564c1.368,0,1.922,0.452,3.148,1.564c1.462,1.325,3.463,3.138,7.229,3.138
	c1.771,0,3.143-0.408,4.26-0.97L71.541,77.761z"/>
<path d="M48.621,57.672l-3.751,0.413c-0.092-0.771-0.331-1.342-0.717-1.71c-0.386-0.367-0.888-0.552-1.503-0.552
	c-0.818,0-1.51,0.368-2.076,1.104c-0.566,0.736-0.922,2.267-1.069,4.593c0.965-1.14,2.166-1.709,3.6-1.709
	c1.618,0,3.004,0.615,4.158,1.848c1.154,1.232,1.73,2.822,1.73,4.771c0,2.068-0.606,3.729-1.82,4.979
	c-1.213,1.251-2.772,1.876-4.675,1.876c-2.041,0-3.719-0.793-5.034-2.379c-1.315-1.587-1.972-4.187-1.972-7.8
	c0-3.705,0.685-6.375,2.055-8.013c1.37-1.637,3.149-2.454,5.337-2.454c1.536,0,2.807,0.43,3.813,1.289
	C47.704,54.787,48.345,56.035,48.621,57.672z M39.835,66.126c0,1.26,0.29,2.231,0.869,2.916c0.579,0.687,1.241,1.028,1.986,1.028
	c0.717,0,1.314-0.28,1.793-0.842c0.478-0.562,0.717-1.48,0.717-2.759c0-1.315-0.257-2.278-0.772-2.89
	c-0.515-0.611-1.159-0.917-1.931-0.917c-0.745,0-1.375,0.292-1.889,0.876C40.093,64.124,39.835,64.984,39.835,66.126z"/>
<path d="M57.751,52.639c1.958,0,3.489,0.698,4.592,2.096c1.315,1.654,1.974,4.399,1.974,8.233c0,3.824-0.662,6.573-1.986,8.247
	c-1.094,1.379-2.62,2.068-4.578,2.068c-1.968,0-3.554-0.756-4.758-2.27c-1.205-1.513-1.807-4.209-1.807-8.089
	c0-3.806,0.66-6.546,1.984-8.22C54.266,53.327,55.792,52.639,57.751,52.639z M57.751,55.852c-0.469,0-0.888,0.149-1.255,0.448
	c-0.368,0.3-0.653,0.834-0.855,1.606c-0.267,1.002-0.399,2.688-0.399,5.062s0.12,4.002,0.358,4.89s0.541,1.478,0.903,1.771
	s0.779,0.441,1.248,0.441c0.47,0,0.888-0.149,1.255-0.448s0.652-0.835,0.854-1.606c0.268-0.992,0.4-2.676,0.4-5.048
	s-0.119-4.002-0.357-4.89c-0.239-0.887-0.541-1.479-0.903-1.778C58.637,56.001,58.221,55.852,57.751,55.852z"/>
</svg>
