<?xml version="1.0" encoding="utf-8"?>
<!-- Generator: Adobe Illustrator 15.1.0, SVG Export Plug-In . SVG Version: 6.00 Build 0)  -->
<!DOCTYPE svg PUBLIC "-//W3C//DTD SVG 1.1//EN" "http://www.w3.org/Graphics/SVG/1.1/DTD/svg11.dtd">
<svg version="1.1" id="Layer_1" xmlns="http://www.w3.org/2000/svg" xmlns:xlink="http://www.w3.org/1999/xlink" x="0px" y="0px"
	 width="100px" height="100px" viewBox="0 0 100 100" enable-background="new 0 0 100 100" xml:space="preserve">
<path d="M32.966,66.258l-9.74-40.802h8.433l6.151,28.026l7.458-28.026h9.796l7.153,28.5l6.263-28.5h8.293l-9.908,40.802h-8.738
	L50,35.754l-8.1,30.504H32.966z"/>
<path d="M91.409,100.002H8.591c-1.851,0-3.351-1.5-3.351-3.352c0-1.853,1.5-3.353,3.351-3.353h82.818
	c1.851,0,3.351,1.501,3.351,3.354C94.76,98.503,93.26,100.002,91.409,100.002z"/>
<path d="M49.999,90.723c-24.965,0-45.275-20.313-45.275-45.279c0-24.965,20.311-45.276,45.275-45.276
	c24.966,0,45.276,20.311,45.276,45.276C95.275,70.409,74.965,90.723,49.999,90.723z M49.999,6.868
	c-21.271,0-38.574,17.305-38.574,38.575c0,21.271,17.304,38.577,38.574,38.577c21.271,0,38.575-17.306,38.575-38.577
	C88.574,24.173,71.27,6.868,49.999,6.868z"/>
</svg>
